# xmcd
#
# Track frame offsets:
#	150
#	12002
#	24430
#	37469
#	48169
#	64303
#	73638
#	87051
#	95600
#	103138
#	111679
#	122045
#	131807
#	143234
#	155727
#
# Disc length: 2330 seconds
#
# Revision: 0
# Processed by: cddbd v1.5.2PL0 Copyright (c) Steve Scherf et al.
# Submitted via: EZCDAudioConverter 2.1.7.1
#
DISCID=dd09180f
DTITLE=Captain Beefheart and The Magic Band - Lick My Decals Off, Baby
DYEAR=1900
DGENRE=
TTITLE0=Lick My Decals Off, Baby
TTITLE1=Doctor Dark
TTITLE2=I Love You, You Big Dummy
TTITLE3=Peon
TTITLE4=Bellerin' Plain
TTITLE5=Woe-Is-Uh-Me-Bop
TTITLE6=Japan In A Dishpan
TTITLE7=I Wanna Find A Woman That'll Hold My Big Toe Till I Have To Go
TTITLE8=Petrified Forest
TTITLE9=One Red Rose That I Mean
TTITLE10=The Buggy Boogie Woogie
TTITLE11=The Smithsonian Institute Blues (Or The Big Dig)
TTITLE12=Space-Age Couple
TTITLE13=The Clouds Are Full Of Wine (Not Whiskey Or Rye)
TTITLE14=Flash Gordon's Ape
EXTD=
EXTT0=
EXTT1=
EXTT2=
EXTT3=
EXTT4=
EXTT5=
EXTT6=
EXTT7=
EXTT8=
EXTT9=
EXTT10=
EXTT11=
EXTT12=
EXTT13=
EXTT14=
PLAYORDER=
